<?xml version="1.0" encoding="utf-8"?>
<!-- Generator: Adobe Illustrator 17.1.0, SVG Export Plug-In . SVG Version: 6.00 Build 0)  -->
<!DOCTYPE svg PUBLIC "-//W3C//DTD SVG 1.1//EN" "http://www.w3.org/Graphics/SVG/1.1/DTD/svg11.dtd">
<svg version="1.1" id="Layer_1" xmlns="http://www.w3.org/2000/svg" xmlns:xlink="http://www.w3.org/1999/xlink" x="0px" y="0px"
	 viewBox="0 0 96 96" enable-background="new 0 0 96 96" xml:space="preserve">
<path fill="#FFFFFF" d="M19.3,62.2c5.5,5.5,12.7,8.5,20.5,8.5c6.8,0,13.2-2.3,18.4-6.6l21,19c0,0,4.7-1.2,5.9-6.5L64,57.6
	c7.4-11.3,6.1-26.4-3.7-36.2c-5.5-5.5-12.7-8.5-20.4-8.5s-15,3-20.5,8.4C8,32.6,8.1,50.9,19.3,62.2z M24.1,27.7
	c0.2-0.3,0.5-0.6,0.8-0.8c4-3.9,9.3-6.2,14.9-6.2s10.9,2.2,14.9,6.2c8.2,8.2,8.3,21.6-0.1,29.8c-4,4-9.3,6.2-14.9,6.2
	s-10.9-2.2-14.9-6.2C17,48.8,16.6,36,24.1,27.7z"/>
</svg>
