<?xml version="1.0" encoding="utf-8"?>
<!-- Generator: Adobe Illustrator 17.1.0, SVG Export Plug-In . SVG Version: 6.00 Build 0)  -->
<!DOCTYPE svg PUBLIC "-//W3C//DTD SVG 1.1//EN" "http://www.w3.org/Graphics/SVG/1.1/DTD/svg11.dtd">
<svg version="1.1" id="Layer_1" xmlns="http://www.w3.org/2000/svg" xmlns:xlink="http://www.w3.org/1999/xlink" x="0px" y="0px"
	 viewBox="0 0 96 96" enable-background="new 0 0 96 96" xml:space="preserve">
<g opacity="0.95">
	<path fill="#777777" d="M53.8,17.2c2.5,0.1,5.2,0.2,7.4,0.2s4.5-0.1,6.8-0.2c0.6,0.6,0.6,2.5,0,3.1c-4.9,0.7-6.9,4.3-9.2,8.7L52,42
		l12,24.7h0.4l17.7-38.4c2.2-5.1,2.1-7.6-4-8c-0.6-0.6-0.6-2.5,0-3.1c3.5,0.1,7.1,0.2,9.2,0.2s5.2-0.1,8.2-0.2
		c0.6,0.6,0.6,2.5,0,3.1c-5.3,0.6-7.1,4.2-9.2,8.7l-22,47.6c-0.7,1.4-1.2,2.1-2.2,2.1c-0.9,0-1.7-0.8-2.1-2.1L47.3,49.5L33.5,76.6
		c-0.6,1.4-1.2,2.1-2.2,2.1c-0.9,0-1.6-0.7-2.1-2.1L8.8,28.8c-2.8-6.6-3.5-8.2-8.4-8.5c-0.6-0.6-0.7-2.5-0.1-3.1
		c3.3,0.1,6.6,0.2,9.7,0.2c2.8,0,6.6-0.1,10.4-0.2c0.6,0.6,0.6,2.5,0,3.1c-5.9,0.7-6.2,2.1-3.8,7.5l17.1,39h0.4l10.4-21.2l-7.9-16.7
		c-3.1-6.6-3.9-7.9-7.9-8.5c-0.6-0.6-0.7-2.5-0.1-3.1c2.7,0.1,5.6,0.2,8.3,0.2c3,0,5.8-0.1,8.5-0.2c0.6,0.6,0.6,2.5,0,3.1
		c-3.9,0.6-3.6,2.1-1,7.5l4.6,9.4l0.4,0.4l5-9.3c2.9-5.4,3.3-7.5-0.7-8C53.3,19.7,53.3,17.8,53.8,17.2z"/>
</g>
</svg>
